<svg xmlns="http://www.w3.org/2000/svg" viewBox="0 0 80 74" preserveAspectRatio="xMidYMid meet">
  <rect width="80" height="58" fill="#eef1f4"/>
  <!-- header -->
  <rect width="80" height="8" fill="#3f4750"/>
  <circle cx="6" cy="4" r="2.2" fill="#5b8def"/>
  <rect x="56" y="3" width="5" height="2" rx="1" fill="#aeb7c0"/>
  <rect x="63" y="3" width="5" height="2" rx="1" fill="#aeb7c0"/>
  <rect x="70" y="3" width="5" height="2" rx="1" fill="#aeb7c0"/>
  <!-- hero -->
  <rect x="0" y="11" width="80" height="17" fill="#dfe4ea"/>
  <rect x="24" y="15" width="32" height="3.5" rx="1" fill="#88929d"/>
  <rect x="30" y="20" width="20" height="2.5" rx="1" fill="#aeb7c0"/>
  <rect x="34" y="24" width="12" height="3.2" rx="1.5" fill="#5b8def"/>
  <!-- feature cards -->
  <rect x="5"    y="32" width="21" height="14" rx="1.5" fill="#ffffff"/>
  <rect x="29.5" y="32" width="21" height="14" rx="1.5" fill="#ffffff"/>
  <rect x="54"   y="32" width="21" height="14" rx="1.5" fill="#ffffff"/>
  <rect x="8"    y="35" width="15" height="3" rx="1" fill="#c3cbd3"/>
  <rect x="32.5" y="35" width="15" height="3" rx="1" fill="#c3cbd3"/>
  <rect x="57"   y="35" width="15" height="3" rx="1" fill="#c3cbd3"/>
  <rect x="8"    y="40" width="15" height="2" rx="1" fill="#dde2e7"/>
  <rect x="32.5" y="40" width="15" height="2" rx="1" fill="#dde2e7"/>
  <rect x="57"   y="40" width="15" height="2" rx="1" fill="#dde2e7"/>
  <!-- footer -->
  <rect x="0" y="50" width="80" height="8" fill="#3f4750"/>
  <rect x="5"  y="53" width="16" height="2" rx="1" fill="#6b747e"/>
  <rect x="59" y="53" width="16" height="2" rx="1" fill="#6b747e"/>
  <text x="40" y="69" text-anchor="middle" font-family="Arial, Helvetica, sans-serif" font-size="7" font-weight="600" fill="#3c444d">Full width</text>
</svg>
