<svg xmlns="http://www.w3.org/2000/svg" viewBox="0 0 80 74" preserveAspectRatio="xMidYMid meet">
  <rect width="80" height="58" fill="#cdd3da"/>
  <rect x="11" y="0" width="58" height="58" fill="#eef1f4"/>
  <!-- header -->
  <rect x="11" y="0" width="58" height="8" fill="#3f4750"/>
  <circle cx="16" cy="4" r="2.2" fill="#5b8def"/>
  <rect x="52" y="3" width="4" height="2" rx="1" fill="#aeb7c0"/>
  <rect x="58" y="3" width="4" height="2" rx="1" fill="#aeb7c0"/>
  <rect x="63" y="3" width="4" height="2" rx="1" fill="#aeb7c0"/>
  <!-- hero -->
  <rect x="11" y="11" width="58" height="17" fill="#dfe4ea"/>
  <rect x="28" y="15" width="24" height="3.5" rx="1" fill="#88929d"/>
  <rect x="33" y="20" width="14" height="2.5" rx="1" fill="#aeb7c0"/>
  <rect x="34" y="24" width="12" height="3.2" rx="1.5" fill="#5b8def"/>
  <!-- feature cards -->
  <rect x="14" y="32" width="16" height="14" rx="1.5" fill="#ffffff"/>
  <rect x="32" y="32" width="16" height="14" rx="1.5" fill="#ffffff"/>
  <rect x="50" y="32" width="16" height="14" rx="1.5" fill="#ffffff"/>
  <rect x="16.5" y="35" width="11" height="3" rx="1" fill="#c3cbd3"/>
  <rect x="34.5" y="35" width="11" height="3" rx="1" fill="#c3cbd3"/>
  <rect x="52.5" y="35" width="11" height="3" rx="1" fill="#c3cbd3"/>
  <rect x="16.5" y="40" width="11" height="2" rx="1" fill="#dde2e7"/>
  <rect x="34.5" y="40" width="11" height="2" rx="1" fill="#dde2e7"/>
  <rect x="52.5" y="40" width="11" height="2" rx="1" fill="#dde2e7"/>
  <!-- footer -->
  <rect x="11" y="50" width="58" height="8" fill="#3f4750"/>
  <rect x="15" y="53" width="14" height="2" rx="1" fill="#6b747e"/>
  <rect x="51" y="53" width="14" height="2" rx="1" fill="#6b747e"/>
  <text x="40" y="69" text-anchor="middle" font-family="Arial, Helvetica, sans-serif" font-size="7" font-weight="600" fill="#3c444d">Boxed</text>
</svg>
