<svg xmlns="http://www.w3.org/2000/svg" viewBox="0 0 80 74" preserveAspectRatio="xMidYMid meet">
  <rect width="80" height="58" fill="#2c3138"/>
  <rect x="6" y="6" width="68" height="46" fill="#eef1f4"/>
  <!-- header -->
  <rect x="6" y="6" width="68" height="7" fill="#3f4750"/>
  <circle cx="11" cy="9.5" r="2" fill="#5b8def"/>
  <rect x="58" y="8.5" width="4" height="2" rx="1" fill="#aeb7c0"/>
  <rect x="64" y="8.5" width="4" height="2" rx="1" fill="#aeb7c0"/>
  <rect x="69" y="8.5" width="3" height="2" rx="1" fill="#aeb7c0"/>
  <!-- hero -->
  <rect x="6" y="16" width="68" height="14" fill="#dfe4ea"/>
  <rect x="24" y="19" width="32" height="3" rx="1" fill="#88929d"/>
  <rect x="31" y="23.5" width="18" height="2.5" rx="1" fill="#aeb7c0"/>
  <!-- feature cards -->
  <rect x="10" y="33" width="18" height="12" rx="1.5" fill="#ffffff"/>
  <rect x="31" y="33" width="18" height="12" rx="1.5" fill="#ffffff"/>
  <rect x="52" y="33" width="18" height="12" rx="1.5" fill="#ffffff"/>
  <rect x="12.5" y="36" width="13" height="2.5" rx="1" fill="#c3cbd3"/>
  <rect x="33.5" y="36" width="13" height="2.5" rx="1" fill="#c3cbd3"/>
  <rect x="54.5" y="36" width="13" height="2.5" rx="1" fill="#c3cbd3"/>
  <rect x="12.5" y="40.5" width="13" height="2" rx="1" fill="#dde2e7"/>
  <rect x="33.5" y="40.5" width="13" height="2" rx="1" fill="#dde2e7"/>
  <rect x="54.5" y="40.5" width="13" height="2" rx="1" fill="#dde2e7"/>
  <!-- footer -->
  <rect x="6" y="47" width="68" height="5" fill="#3f4750"/>
  <text x="40" y="69" text-anchor="middle" font-family="Arial, Helvetica, sans-serif" font-size="7" font-weight="600" fill="#3c444d">Framed</text>
</svg>
